<svg xmlns="http://www.w3.org/2000/svg" viewBox="0 0 1024 512" role="img" aria-label="Coffee banner reference">
  <defs>
    <filter id="shadow" x="-25%" y="-25%" width="150%" height="160%"><feDropShadow dx="0" dy="18" stdDeviation="13" flood-color="#24120d" flood-opacity="0.26"/></filter>
    <filter id="beanShadow" x="-45%" y="-45%" width="190%" height="190%"><feDropShadow dx="0" dy="8" stdDeviation="5" flood-color="#24120d" flood-opacity="0.26"/></filter>
    <linearGradient id="paper" x1="0" y1="0" x2="1" y2="1"><stop offset="0" stop-color="#f5f4f1"/><stop offset="0.48" stop-color="#deddd9"/><stop offset="1" stop-color="#f2f1ee"/></linearGradient>
    <linearGradient id="cup" x1="0" y1="0" x2="0" y2="1"><stop offset="0" stop-color="#d7a482"/><stop offset="0.45" stop-color="#a66a4a"/><stop offset="1" stop-color="#65402e"/></linearGradient>
    <linearGradient id="cookie" x1="0" y1="0" x2="1" y2="1"><stop offset="0" stop-color="#43261e"/><stop offset="1" stop-color="#100605"/></linearGradient>
    <radialGradient id="cream" cx="45%" cy="28%" r="72%"><stop offset="0" stop-color="#fff"/><stop offset="0.58" stop-color="#efe2d9"/><stop offset="1" stop-color="#d6bba9"/></radialGradient>
    <radialGradient id="bean" cx="35%" cy="30%" r="72%"><stop offset="0" stop-color="#9b5d3d"/><stop offset="1" stop-color="#2b110d"/></radialGradient>
  </defs>
  <rect width="1024" height="512" fill="url(#paper)"/>
  <g opacity="0.26" fill="none" stroke="#fff" stroke-width="2">
    <circle cx="78" cy="58" r="34"/><circle cx="78" cy="58" r="66"/><circle cx="78" cy="58" r="96"/><circle cx="78" cy="58" r="128"/>
    <path d="M93 444v-165M94 279h62"/><path d="M14 0h996" opacity="0.24"/>
  </g>
  <g opacity="0.24" fill="none" stroke="#fff" stroke-width="2">
    <path d="M0 63c145 32 260-22 426 14 211 46 365-33 598 18"/>
    <path d="M0 438c181-49 319 36 518-5 174-36 309 17 506-13"/>
    <path d="M844 0c-31 102-6 176-40 281-20 62-16 135-2 231"/>
  </g>
  <g opacity="0.045" stroke="#24120d" stroke-width="1"><path d="M0 0l1024 512M1024 0L0 512"/></g>

  <g font-family="Montserrat, Arial, sans-serif" fill="#080808">
    <text x="80" y="148" font-size="45" font-weight="500" letter-spacing="-2.6">IT' A BREAK</text>
    <text x="80" y="193" font-size="45" font-weight="500" letter-spacing="-2.6">WITH <tspan font-weight="900">COFFEE</tspan></text>
    <text x="216" y="241" font-size="50" font-weight="900" letter-spacing="-3.7">COFFEE</text>
    <text x="216" y="292" font-size="50" font-weight="900" letter-spacing="-3.7">COFFEE</text>
    <text x="216" y="343" font-size="50" font-weight="500" letter-spacing="-3.7">COFFEE</text>
    <text x="216" y="394" font-size="50" font-weight="500" letter-spacing="-3.7">COFFEE</text>
    <text x="216" y="445" font-size="50" font-weight="500" letter-spacing="-3.7">COFFEE</text>
  </g>

  <g font-family="Montserrat, Arial, sans-serif" fill="#050505">
    <text x="520" y="178" font-size="118" font-weight="900" letter-spacing="-10">COFFEE</text>
    <text x="520" y="316" font-size="118" font-weight="900" letter-spacing="-10">COFFEE</text>
    <text x="520" y="454" font-size="118" font-weight="900" letter-spacing="-10">COFFEE</text>
  </g>

  <g filter="url(#shadow)">
    <ellipse cx="700" cy="384" rx="116" ry="31" fill="#25100c" opacity="0.78"/>
    <ellipse cx="918" cy="389" rx="145" ry="27" fill="#25100c" opacity="0.62"/>
    <g transform="translate(647 325) rotate(-10)"><ellipse cx="0" cy="39" rx="88" ry="36" fill="url(#cookie)"/><ellipse cx="3" cy="23" rx="80" ry="23" fill="#44261e"/><rect x="-64" y="28" width="130" height="13" rx="7" fill="#0f0505" opacity="0.55"/></g>
    <g transform="translate(720 359) rotate(-2)"><ellipse cx="0" cy="31" rx="80" ry="33" fill="url(#cookie)"/><ellipse cx="0" cy="17" rx="72" ry="22" fill="#42251d"/><rect x="-58" y="22" width="116" height="12" rx="6" fill="#0f0505" opacity="0.56"/></g>
    <g transform="translate(690 188)"><circle cx="0" cy="0" r="43" fill="url(#cookie)"/><circle cx="0" cy="0" r="31" fill="none" stroke="#6a3b2d" stroke-width="5"/><circle cx="0" cy="0" r="18" fill="none" stroke="#6a3b2d" stroke-width="4"/></g>
    <g transform="translate(795 101)">
      <path d="M92 26c41 2 67 30 57 59 26 8 39 29 31 50-11 31-63 34-98 28-42-7-92-14-114-42-20-24-13-57 17-70 17-7 36-6 52-1 11-18 30-26 55-24z" fill="url(#cream)"/>
      <path d="M43 42c9 19 34 15 47 5M91 64c15 15 46 11 57-4M35 101c26 10 68 14 101 4" fill="none" stroke="#c5a18c" stroke-width="8" stroke-linecap="round" opacity="0.5"/>
    </g>
    <g transform="translate(815 171)">
      <path d="M16 7h158l-26 214c-3 25-21 40-46 40H87c-25 0-42-15-46-40L16 7z" fill="url(#cup)"/>
      <ellipse cx="95" cy="11" rx="82" ry="22" fill="#f1e1d2"/><ellipse cx="95" cy="13" rx="63" ry="12" fill="#71402a" opacity="0.32"/>
      <rect x="53" y="84" width="84" height="84" rx="42" fill="#33201b"/><rect x="62" y="93" width="66" height="66" rx="33" fill="none" stroke="#e5bd82" stroke-width="5"/>
      <text x="95" y="135" text-anchor="middle" font-family="Montserrat, Arial, sans-serif" font-size="16" font-weight="800" fill="#fff2de">Millions</text>
      <path d="M170 72c54 3 67 75 17 97" fill="none" stroke="#8b5639" stroke-width="19" stroke-linecap="round" opacity="0.82"/>
    </g>
    <g transform="translate(963 337) rotate(14)"><ellipse cx="0" cy="37" rx="93" ry="35" fill="url(#cookie)"/><ellipse cx="2" cy="22" rx="83" ry="23" fill="#3d2119"/><rect x="-66" y="26" width="132" height="12" rx="6" fill="#110706" opacity="0.56"/></g>
    <g transform="translate(958 280) rotate(-18)"><ellipse cx="0" cy="22" rx="54" ry="20" fill="url(#cookie)"/><ellipse cx="0" cy="12" rx="48" ry="14" fill="#4b2b22"/></g>
  </g>

  <g fill="#f0dcc0" filter="url(#beanShadow)"><circle cx="1004" cy="395" r="22"/><circle cx="780" cy="405" r="14"/><circle cx="935" cy="392" r="15"/></g>
  <g filter="url(#beanShadow)">
    <g transform="translate(730 92) rotate(26)"><ellipse rx="18" ry="11" fill="url(#bean)"/><path d="M0-8c-5 5-5 11 1 16" fill="none" stroke="#c38a60" stroke-width="2" opacity="0.5"/></g>
    <g transform="translate(906 66) rotate(-18)"><ellipse rx="18" ry="11" fill="url(#bean)"/><path d="M0-8c-5 5-5 11 1 16" fill="none" stroke="#c38a60" stroke-width="2" opacity="0.5"/></g>
    <g transform="translate(954 111) rotate(32)"><ellipse rx="18" ry="11" fill="url(#bean)"/><path d="M0-8c-5 5-5 11 1 16" fill="none" stroke="#c38a60" stroke-width="2" opacity="0.5"/></g>
    <g transform="translate(1000 143) rotate(-5)"><ellipse rx="17" ry="10" fill="url(#bean)"/><path d="M0-7c-5 5-5 10 1 14" fill="none" stroke="#c38a60" stroke-width="2" opacity="0.5"/></g>
    <g transform="translate(995 248) rotate(42)"><ellipse rx="16" ry="10" fill="url(#bean)"/><path d="M0-7c-5 5-5 10 1 14" fill="none" stroke="#c38a60" stroke-width="2" opacity="0.5"/></g>
    <g transform="translate(1000 443) rotate(-11)"><ellipse rx="19" ry="11" fill="url(#bean)"/><path d="M0-8c-5 5-5 11 1 16" fill="none" stroke="#c38a60" stroke-width="2" opacity="0.5"/></g>
    <g transform="translate(586 438) rotate(24)"><ellipse rx="18" ry="11" fill="url(#bean)"/><path d="M0-8c-5 5-5 11 1 16" fill="none" stroke="#c38a60" stroke-width="2" opacity="0.5"/></g>
    <g transform="translate(586 205) rotate(-28)"><ellipse rx="16" ry="10" fill="url(#bean)"/><path d="M0-7c-5 5-5 10 1 14" fill="none" stroke="#c38a60" stroke-width="2" opacity="0.5"/></g>
    <g transform="translate(640 287) rotate(18)"><ellipse rx="17" ry="10" fill="url(#bean)"/><path d="M0-7c-5 5-5 10 1 14" fill="none" stroke="#c38a60" stroke-width="2" opacity="0.5"/></g>
  </g>
  <g fill="#5d2c20" opacity="0.92"><rect x="825" y="54" width="8" height="29" rx="4" transform="rotate(-18 829 68)"/><rect x="873" y="42" width="7" height="30" rx="4" transform="rotate(8 876 56)"/><rect x="921" y="55" width="8" height="29" rx="4" transform="rotate(28 925 69)"/><rect x="983" y="432" width="7" height="28" rx="4" transform="rotate(-27 986 446)"/><rect x="1011" y="428" width="7" height="28" rx="4" transform="rotate(22 1014 442)"/></g>
  <g transform="translate(488 490)"><rect x="0" y="0" width="58" height="8" rx="5" fill="#2b1510"/><circle cx="78" cy="4" r="4" fill="#2b1510" opacity="0.7"/><circle cx="96" cy="4" r="4" fill="#2b1510" opacity="0.42"/></g>
  <path d="M982 454c10 23 18 31 42 42-24 10-32 18-42 42-10-24-18-32-42-42 24-11 32-19 42-42z" transform="translate(0 -7) scale(.5) translate(980 480)" fill="#fff" opacity="0.78"/>
</svg>
