<svg xmlns="http://www.w3.org/2000/svg" viewBox="0 0 1120 520" role="img" aria-label="Coffee Point hero reference banner">
  <defs>
    <filter id="shadow" x="-25%" y="-25%" width="150%" height="160%">
      <feDropShadow dx="0" dy="18" stdDeviation="13" flood-color="#24120d" flood-opacity="0.25"/>
    </filter>
    <filter id="beanShadow" x="-45%" y="-45%" width="190%" height="190%">
      <feDropShadow dx="0" dy="8" stdDeviation="5" flood-color="#24120d" flood-opacity="0.25"/>
    </filter>
    <linearGradient id="paper" x1="0" y1="0" x2="1" y2="1">
      <stop offset="0" stop-color="#f6f5f2"/>
      <stop offset="0.48" stop-color="#deddd9"/>
      <stop offset="1" stop-color="#f1f0ed"/>
    </linearGradient>
    <linearGradient id="cup" x1="0" y1="0" x2="0" y2="1">
      <stop offset="0" stop-color="#d8a884"/>
      <stop offset="0.45" stop-color="#a76b4b"/>
      <stop offset="1" stop-color="#6a3d2c"/>
    </linearGradient>
    <linearGradient id="cookie" x1="0" y1="0" x2="1" y2="1">
      <stop offset="0" stop-color="#43261e"/>
      <stop offset="1" stop-color="#100605"/>
    </linearGradient>
    <radialGradient id="cream" cx="45%" cy="28%" r="72%">
      <stop offset="0" stop-color="#ffffff"/>
      <stop offset="0.58" stop-color="#efe2d9"/>
      <stop offset="1" stop-color="#d6bba9"/>
    </radialGradient>
    <radialGradient id="bean" cx="35%" cy="30%" r="72%">
      <stop offset="0" stop-color="#9b5d3d"/>
      <stop offset="1" stop-color="#2b110d"/>
    </radialGradient>
  </defs>

  <rect width="1120" height="520" fill="url(#paper)"/>
  <g opacity="0.33" fill="none" stroke="#ffffff" stroke-width="2">
    <circle cx="92" cy="62" r="35"/>
    <circle cx="92" cy="62" r="70"/>
    <circle cx="92" cy="62" r="103"/>
    <path d="M71 289v-96M72 193h71"/>
    <path d="M16 0h1090" opacity="0.24"/>
  </g>
  <g opacity="0.28">
    <path d="M0 60c160 36 294-22 467 14 232 48 404-34 653 18" fill="none" stroke="#ffffff" stroke-width="2"/>
    <path d="M0 438c198-53 351 39 569-6 191-39 340 18 551-14" fill="none" stroke="#ffffff" stroke-width="2"/>
    <path d="M905 0c-35 105-8 181-45 289-22 64-18 138-2 231" fill="none" stroke="#ffffff" stroke-width="2"/>
  </g>
  <g opacity="0.07">
    <path d="M0 0h1120v520H0z" fill="url(#paper)"/>
    <path d="M0 0l1120 520M1120 0L0 520" stroke="#24120d" stroke-width="1"/>
  </g>

  <g font-family="Montserrat, Arial, sans-serif" fill="#111111">
    <text x="76" y="147" font-size="46" font-weight="500" letter-spacing="-2.4">IT’ A BREAK</text>
    <text x="76" y="196" font-size="46" font-weight="500" letter-spacing="-2.4">WITH <tspan font-weight="900">COFFEE</tspan></text>
    <text x="225" y="248" font-size="52" font-weight="900" letter-spacing="-3.8">COFFEE</text>
    <text x="225" y="299" font-size="52" font-weight="900" letter-spacing="-3.8">COFFEE</text>
    <text x="225" y="350" font-size="52" font-weight="500" letter-spacing="-3.8">COFFEE</text>
    <text x="225" y="401" font-size="52" font-weight="500" letter-spacing="-3.8">COFFEE</text>
    <text x="225" y="452" font-size="52" font-weight="500" letter-spacing="-3.8">COFFEE</text>
  </g>

  <g opacity="0.98" font-family="Montserrat, Arial, sans-serif" fill="#050505">
    <text x="560" y="155" font-size="120" font-weight="900" letter-spacing="-10">COFFEE</text>
    <text x="560" y="294" font-size="120" font-weight="900" letter-spacing="-10">COFFEE</text>
    <text x="560" y="433" font-size="120" font-weight="900" letter-spacing="-10">COFFEE</text>
  </g>

  <g filter="url(#shadow)">
    <ellipse cx="722" cy="384" rx="118" ry="31" fill="#25100c" opacity="0.78"/>
    <ellipse cx="930" cy="389" rx="150" ry="27" fill="#25100c" opacity="0.62"/>

    <g transform="translate(672 326) rotate(-9)">
      <ellipse cx="0" cy="39" rx="93" ry="37" fill="url(#cookie)"/>
      <ellipse cx="3" cy="24" rx="86" ry="24" fill="#44261e"/>
      <rect x="-68" y="29" width="138" height="13" rx="7" fill="#0f0505" opacity="0.54"/>
    </g>
    <g transform="translate(743 361) rotate(-2)">
      <ellipse cx="0" cy="31" rx="83" ry="33" fill="url(#cookie)"/>
      <ellipse cx="0" cy="17" rx="76" ry="22" fill="#42251d"/>
      <rect x="-61" y="22" width="122" height="12" rx="6" fill="#0f0505" opacity="0.56"/>
    </g>

    <g transform="translate(805 105)">
      <path d="M92 26c41 2 67 30 57 59 26 8 39 29 31 50-11 31-63 34-98 28-42-7-92-14-114-42-20-24-13-57 17-70 17-7 36-6 52-1 11-18 30-26 55-24z" fill="url(#cream)"/>
      <path d="M43 42c9 19 34 15 47 5M91 64c15 15 46 11 57-4M35 101c26 10 68 14 101 4" fill="none" stroke="#c5a18c" stroke-width="8" stroke-linecap="round" opacity="0.5"/>
    </g>

    <g transform="translate(825 171)">
      <path d="M16 7h158l-26 214c-3 25-21 40-46 40H87c-25 0-42-15-46-40L16 7z" fill="url(#cup)"/>
      <ellipse cx="95" cy="11" rx="82" ry="22" fill="#f1e1d2"/>
      <ellipse cx="95" cy="13" rx="63" ry="12" fill="#71402a" opacity="0.32"/>
      <rect x="53" y="84" width="84" height="84" rx="42" fill="#33201b"/>
      <rect x="62" y="93" width="66" height="66" rx="33" fill="none" stroke="#e5bd82" stroke-width="5"/>
      <text x="95" y="135" text-anchor="middle" font-family="Montserrat, Arial, sans-serif" font-size="16" font-weight="800" fill="#fff2de">Milton's</text>
      <path d="M170 72c54 3 67 75 17 97" fill="none" stroke="#8b5639" stroke-width="19" stroke-linecap="round" opacity="0.82"/>
    </g>

    <g transform="translate(982 334) rotate(14)">
      <ellipse cx="0" cy="37" rx="95" ry="35" fill="url(#cookie)"/>
      <ellipse cx="2" cy="22" rx="85" ry="23" fill="#3d2119"/>
      <rect x="-69" y="26" width="138" height="12" rx="6" fill="#110706" opacity="0.56"/>
    </g>
  </g>

  <g fill="#f0dcc0" filter="url(#beanShadow)">
    <circle cx="1026" cy="395" r="23"/>
    <circle cx="1075" cy="374" r="17"/>
    <circle cx="772" cy="405" r="14"/>
  </g>

  <g filter="url(#beanShadow)">
    <g transform="translate(757 92) rotate(26)"><ellipse rx="18" ry="11" fill="url(#bean)"/><path d="M0-8c-5 5-5 11 1 16" fill="none" stroke="#c38a60" stroke-width="2" opacity="0.5"/></g>
    <g transform="translate(1054 74) rotate(-20)"><ellipse rx="19" ry="11" fill="url(#bean)"/><path d="M0-8c-5 5-5 11 1 16" fill="none" stroke="#c38a60" stroke-width="2" opacity="0.5"/></g>
    <g transform="translate(1090 185) rotate(42)"><ellipse rx="17" ry="10" fill="url(#bean)"/><path d="M0-7c-5 5-5 10 1 14" fill="none" stroke="#c38a60" stroke-width="2" opacity="0.5"/></g>
    <g transform="translate(1088 443) rotate(-11)"><ellipse rx="19" ry="11" fill="url(#bean)"/><path d="M0-8c-5 5-5 11 1 16" fill="none" stroke="#c38a60" stroke-width="2" opacity="0.5"/></g>
    <g transform="translate(644 438) rotate(24)"><ellipse rx="18" ry="11" fill="url(#bean)"/><path d="M0-8c-5 5-5 11 1 16" fill="none" stroke="#c38a60" stroke-width="2" opacity="0.5"/></g>
    <g transform="translate(553 195) rotate(-28)"><ellipse rx="16" ry="10" fill="url(#bean)"/><path d="M0-7c-5 5-5 10 1 14" fill="none" stroke="#c38a60" stroke-width="2" opacity="0.5"/></g>
  </g>

  <g fill="#5d2c20" opacity="0.92">
    <rect x="838" y="54" width="8" height="29" rx="4" transform="rotate(-18 842 68)"/>
    <rect x="886" y="42" width="7" height="30" rx="4" transform="rotate(8 889 56)"/>
    <rect x="934" y="55" width="8" height="29" rx="4" transform="rotate(28 938 69)"/>
    <rect x="1018" y="432" width="7" height="28" rx="4" transform="rotate(-27 1021 446)"/>
    <rect x="1074" y="428" width="7" height="28" rx="4" transform="rotate(22 1077 442)"/>
  </g>

</svg>
